<?xml version="1.0" encoding="UTF-8" standalone="no"?>
<!-- Created with Inkscape (http://www.inkscape.org/) -->

<svg
   width="339.71512mm"
   height="112.53045mm"
   viewBox="0 0 339.71512 112.53045"
   version="1.1"
   id="svg5"
   xml:space="preserve"
   inkscape:version="1.2.2 (732a01da63, 2022-12-09)"
   sodipodi:docname="stope_01_125wl.svg"
   xmlns:inkscape="http://www.inkscape.org/namespaces/inkscape"
   xmlns:sodipodi="http://sodipodi.sourceforge.net/DTD/sodipodi-0.dtd"
   xmlns="http://www.w3.org/2000/svg"
   xmlns:svg="http://www.w3.org/2000/svg"><sodipodi:namedview
     id="namedview7"
     pagecolor="#ffffff"
     bordercolor="#000000"
     borderopacity="0.25"
     inkscape:showpageshadow="2"
     inkscape:pageopacity="0.0"
     inkscape:pagecheckerboard="0"
     inkscape:deskcolor="#d1d1d1"
     inkscape:document-units="mm"
     showgrid="false"
     inkscape:zoom="0.75989759"
     inkscape:cx="530.99261"
     inkscape:cy="80.931959"
     inkscape:window-width="1920"
     inkscape:window-height="1111"
     inkscape:window-x="-9"
     inkscape:window-y="-9"
     inkscape:window-maximized="1"
     inkscape:current-layer="layer1" /><defs
     id="defs2" /><g
     inkscape:label="Layer 1"
     inkscape:groupmode="layer"
     id="layer1"
     transform="translate(3.8380895,-22.467232)"><path
       style="fill:none;stroke:#000000;stroke-width:1.28618;stroke-dasharray:none;stroke-opacity:1"
       d="M -2.1580221,65.310631 C 2.1054886,61.92522 100.11551,13.064037 126.34656,25.516585 c 16.98375,8.062589 21.85322,13.065664 33.25055,16.283547 8.73934,-10.066205 16.9017,-26.148724 27.30719,-14.790944 4.20223,4.820215 3.96913,9.580748 4.46984,16.018288 l 39.53711,-3.074821 c 43.33061,-0.100202 106.89318,70.463975 104.22106,76.055925 -1.94387,4.06794 -58.19528,-23.742271 -92.18452,-32.876573 -16.61386,0.335237 -33.65601,-3.031518 -54.00392,-4.346287 -1.07199,6.574448 -2.072,14.485248 -8.33456,23.96327 l -4.80918,27.3087 c -15.08095,9.08726 -20.48041,1.25643 -27.8346,-0.64519 l 5.0111,-25.53528 C 151.2598,100.6766 150.39483,94.056442 150.43104,83.818245 126.86553,69.576298 103.35218,61.286898 79.903434,60.375055 40.637152,57.178697 -11.214022,72.501463 -2.1579661,65.310591 Z"
       id="path262"
       sodipodi:nodetypes="ssccccsccccccccss" /><path
       style="fill:#ff0000;stroke:#ff0000;stroke-width:0.275135;stroke-dasharray:none;stroke-opacity:1"
       d="M -2.4871755,67.433225 114.45459,23.278694"
       id="path4667"
       inkscape:transform-center-x="-58.659462"
       inkscape:transform-center-y="-21.99018" /></g></svg>
